<?xml version="1.0" encoding="UTF-8" standalone="no"?>
<!-- Created with Inkscape (http://www.inkscape.org/) -->

<svg
   version="1.1"
   id="svg1"
   width="2000"
   height="2000"
   viewBox="0 0 2000 2000"
   sodipodi:docname="profile.jpg"
   inkscape:export-filename="favicons/gadzillabd-favicon-16.svg"
   inkscape:export-xdpi="1"
   inkscape:export-ydpi="1"
   xmlns:inkscape="http://www.inkscape.org/namespaces/inkscape"
   xmlns:sodipodi="http://sodipodi.sourceforge.net/DTD/sodipodi-0.dtd"
   xmlns="http://www.w3.org/2000/svg"
   xmlns:svg="http://www.w3.org/2000/svg">
  <defs
     id="defs1" />
  <sodipodi:namedview
     id="namedview1"
     pagecolor="#ffffff"
     bordercolor="#000000"
     borderopacity="0.25"
     inkscape:showpageshadow="2"
     inkscape:pageopacity="0.0"
     inkscape:pagecheckerboard="0"
     inkscape:deskcolor="#d1d1d1">
    <inkscape:page
       x="0"
       y="0"
       width="2000"
       height="2000"
       id="page2"
       margin="0"
       bleed="0" />
  </sodipodi:namedview>
  <g
     inkscape:groupmode="layer"
     inkscape:label="Image"
     id="g1">
    <g
       id="g2"
       transform="translate(-115.96551,-31.112698)"
       style="fill:#fe4543;fill-opacity:1">
      <path
         style="fill:#fe4543;fill-opacity:1"
         d="m 1083.5538,1624.7107 c -1.65,-0.4199 -6.5233,-0.8166 -10.8295,-0.8817 -4.3063,-0.065 -11.9563,-0.5544 -17,-1.0873 -5.0438,-0.533 -12.208,-1.2438 -15.9205,-1.5796 -3.7125,-0.3358 -6.75,-0.9576 -6.75,-1.3817 0,-0.4241 2.1375,-0.4349 4.75,-0.024 2.6125,0.4108 12.4,1.2605 21.75,1.888 9.35,0.6276 19.7519,1.5743 23.1153,2.1037 7.7873,1.2258 38.6837,1.2443 52.3847,0.031 5.775,-0.5112 15.9,-1.1442 22.5,-1.4067 10.5555,-0.4196 11.037,-0.3743 4,0.3769 -26.6675,2.8469 -70.2158,3.9417 -78,1.961 z m -208.84984,-46.0334 c -11.50867,-5.8761 -16.22928,-9.3115 -25.21742,-18.3522 -8.27927,-8.3276 -13.39529,-15.9475 -17.19777,-25.6144 -2.63043,-6.6873 -3.92605,-12.2452 -2.33114,-10 0.58606,0.825 1.07246,2.3654 1.08088,3.4231 0.0285,3.586 8.90225,20.3372 14.05016,26.523 7.14536,8.586 18.20705,17.0666 29.42865,22.5617 5.24508,2.5685 9.53651,4.8549 9.53651,5.0811 0,0.9216 -1.86684,0.1984 -9.34987,-3.6223 z m 468.34984,3.0948 c 0.825,-0.4828 7.2286,-3.1626 14.2302,-5.9552 16.4181,-6.5483 18.782,-7.6122 40.2698,-18.1249 16.1105,-7.8819 41.2453,-21.717 53.5,-29.4483 8.7338,-5.51 31.5065,-20.8297 32,-21.5271 0.6541,-0.9243 5,-3.2093 5,-2.6289 0,1.7139 -58.7383,39.623 -61.3939,39.623 -0.2849,0 -2.9004,1.4076 -5.8121,3.128 -10.5611,6.2402 -32.3448,16.8069 -54.294,26.3367 -1.65,0.7164 -5.1326,2.2549 -7.7391,3.4189 -2.6065,1.164 -5.2001,2.1164 -5.7635,2.1164 -1.0047,0 -2.2498,0.5258 -6.7338,2.8439 -2.6558,1.3729 -5.5698,1.5671 -3.2636,0.2175 z m 156.5952,-87.2369 c 5.9977,-4.4965 11.1298,-8.4456 11.4048,-8.7758 0.275,-0.3302 2.525,-2.1615 5,-4.0695 2.475,-1.908 5.85,-4.6572 7.5,-6.1094 1.65,-1.4522 8.625,-7.595 15.5,-13.6507 6.875,-6.0557 19.8906,-18.4793 28.9235,-27.6079 9.0329,-9.1287 16.574,-16.447 16.758,-16.2631 0.184,0.184 -6.9816,7.776 -15.9235,16.8711 -13.9371,14.1759 -23.4057,23.0595 -40.8151,38.2934 -11.05,9.6691 -36.7507,29.4874 -38.2399,29.4874 -0.5569,0 3.8946,-3.679 9.8922,-8.1755 z m -670.52749,-3.393 c -0.16587,-2.6187 3.44419,-12.3859 7.14412,-19.329 9.01689,-16.9204 20.85406,-28.288 36.78113,-35.322 3.57888,-1.5806 7.40707,-3.2704 8.50707,-3.7551 5.36069,-2.3621 15.61944,-5.0341 21,-5.4698 4.28941,-0.3472 5.1447,-0.2443 3,0.361 -1.65,0.4657 -4.46861,0.9 -6.26357,0.9651 -1.79497,0.065 -4.04497,0.5021 -5,0.9712 -0.95504,0.4691 -4.88643,1.8576 -8.73643,3.0857 -17.6442,5.6279 -34.16345,17.272 -43.04398,30.3409 -3.74116,5.5056 -8.94496,15.9233 -10.35022,20.7205 -1.65738,5.6579 -2.95017,8.8201 -3.03812,7.4315 z m -166.8494,-51.0283 c -26.39228,-26.5018 -42.27161,-44.6062 -60.87336,-69.4032 -8.15584,-10.8722 -24.23411,-34.4442 -23.79415,-34.8841 0.5512,-0.5512 -0.3021,-1.6995 8.45981,11.3841 14.39136,21.4896 32.84626,45.0525 52.45649,66.9754 9.17296,10.2548 34.19726,35.5747 42.85893,43.3652 2.65431,2.3874 4.57286,4.5938 4.26345,4.9033 -0.30942,0.3094 -10.82644,-9.7439 -23.37117,-22.3407 z m 462.78169,-6.9738 c -15.675,-0.7128 -36.15,-1.8128 -45.5,-2.4445 -49.1365,-3.3196 -109.9326,-5.2621 -144.99997,-4.6329 -22.94396,0.4117 -24.35444,0.3535 -12,-0.4953 24.2116,-1.6633 92.62027,-0.1636 141.99997,3.1131 89.9706,5.9702 138.2787,6.4603 189.5,1.9224 26.2591,-2.3264 56.6984,-10.0575 82.0144,-20.8305 4.0051,-1.7043 7.5027,-2.878 7.7725,-2.6082 0.2698,0.2698 -0.5844,0.9061 -1.8982,1.414 -1.3138,0.508 -5.9887,2.361 -10.3887,4.118 -13.0189,5.1986 -21.9627,8.0493 -39,12.4305 -4.6655,1.1998 -8.4239,2.0094 -21,4.5236 -23.4225,4.6828 -86.9755,6.1967 -146.5,3.4898 z m -391.94676,-3.5043 c -0.15632,-4.626 10.70912,-29.8751 16.57739,-38.5224 1.30317,-1.9204 2.3694,-3.8841 2.3694,-4.3638 0,-0.4797 0.36369,-1.0223 0.80821,-1.2056 0.44451,-0.1833 2.19289,-2.3583 3.88529,-4.8333 8.15209,-11.9219 29.89816,-33.2352 44.8065,-43.9148 10.13045,-7.257 15.5,-10.4968 15.5,-9.352 0,0.493 -1.49616,1.6098 -3.32479,2.4818 -7.28699,3.475 -24.88609,17.8387 -37.67521,30.7492 -20.40261,20.5962 -31.76328,38.0913 -39.63454,61.0358 -1.79247,5.225 -3.28298,8.7913 -3.31225,7.9251 z m 861.12696,-23.6751 c 16.4945,-18.9521 30.6273,-37.1679 43.2538,-55.75 9.0291,-13.2879 13.7108,-19.1675 9.5553,-12 -1.2755,2.2 -2.8614,4.675 -3.5243,5.5 -0.6628,0.825 -3.3666,4.65 -6.0084,8.5 -5.0834,7.4083 -21.4778,29.6534 -22.4783,30.5 -0.3249,0.275 -2.1405,2.5544 -4.0346,5.0653 -5.4209,7.1865 -24.3532,28.8102 -25.2816,28.8756 -0.4609,0.033 3.3723,-4.7784 8.5181,-10.6909 z m -233.1802,-7.6636 c 0,-0.2274 3.9375,-2.7667 8.75,-5.6429 28.1405,-16.8179 50.8706,-38.3529 67.4923,-63.9435 5.9145,-9.1059 14.6891,-26.068 16.7179,-32.317 0.6815,-2.0994 1.4749,-3.5813 1.7631,-3.2931 0.7809,0.7809 -4.2182,12.7517 -9.3743,22.4475 -11.2032,21.0668 -25.3138,38.3541 -46.8787,57.4323 -5.8093,5.1394 -18.6013,14.208 -28.7554,20.3856 -8.5466,5.1995 -9.7149,5.7925 -9.7149,4.9311 z m -793.76298,-78.2859 c -17.09357,-28.1251 -32.54169,-58.077 -41.41614,-80.3005 -1.64723,-4.125 -4.0999,-9.9177 -5.45039,-12.8726 -1.3505,-2.9548 -2.31304,-5.7997 -2.13899,-6.3218 0.17405,-0.5222 2.50742,4.3705 5.18528,10.8725 12.75716,30.9753 29.1321,63.0816 46.26492,90.7114 4.05489,6.5393 7.1876,12.0745 6.96158,12.3006 -0.22603,0.226 -4.45884,-6.2493 -9.40626,-14.3896 z m 577.26298,-18.3708 c -8.8,-0.4051 -24.1,-1.2458 -34,-1.8682 -62.5052,-3.9297 -106.4805,-5.3104 -145.99997,-4.5839 -16.5,0.3033 -34.05,0.7395 -39,0.9693 -6.44598,0.2994 -7.86488,0.1807 -5,-0.4182 2.2,-0.4598 20.875,-1.1379 41.5,-1.5068 44.59817,-0.7977 80.94717,0.2838 148.49997,4.4185 16.4794,1.0087 56.7104,2.8455 73.5,3.3558 5.225,0.1588 2.075,0.307 -7,0.3293 -9.075,0.022 -23.7,-0.2907 -32.5,-0.6958 z m 100.5,-0.4455 c 29.562,-1.6739 40.3699,-3.1923 50.4141,-7.0827 1.2389,-0.4799 1.685,-0.3708 1.2647,0.3091 -0.357,0.5778 -1.6684,1.298 -2.914,1.6004 -1.2456,0.3024 -4.0648,1.0287 -6.2648,1.6139 -9.0048,2.3956 -25.1914,3.9782 -45.5,4.4486 l -21.5,0.4981 z m 60,-11.1904 c 22.4498,-10.8178 34.7231,-26.9351 37.9176,-49.7938 0.7277,-5.2067 0.8547,-5.4622 0.9605,-1.9324 0.3013,10.0499 -6.3615,26.0197 -14.9053,35.726 -6.4772,7.3585 -25.6234,19.8251 -30.1943,19.6603 -0.7031,-0.025 2.0965,-1.6724 6.2215,-3.6601 z m 151.0816,1.5213 c -0.045,-0.3767 0.3732,-1.881 0.929,-3.3429 1.7461,-4.5928 5.039,-17.6495 6.5501,-25.9722 1.451,-7.9923 2.1189,-47.1335 0.9668,-56.6608 -0.4703,-3.8886 -0.4209,-4.0277 0.4759,-1.3392 0.5504,1.65 1.0226,13.575 1.0495,26.5 0.051,24.2988 -0.7644,32.1442 -4.9336,47.5 -1.8188,6.6992 -4.8663,14.7539 -5.0377,13.3151 z m 217.9337,0.02 c -0.01,-0.3657 1.7639,-4.0231 3.9385,-8.1274 2.1745,-4.1043 6.7209,-13.4801 10.1029,-20.835 3.3821,-7.3549 7.6779,-16.6752 9.5463,-20.7118 1.8684,-4.0365 3.397,-7.7551 3.397,-8.2635 0,-0.5085 0.3975,-1.7059 0.8834,-2.6609 0.8121,-1.5965 1.5259,-3.2803 4.0213,-9.4864 2.5633,-6.3747 7.0943,-18.7281 8.161,-22.25 0.6663,-2.2 1.5646,-4.9 1.9963,-6 0.4317,-1.1 2.2123,-6.725 3.957,-12.5 3.6238,-11.9954 5.3077,-16.3097 4.4204,-11.3256 -0.7181,4.0341 -10.3198,33.5922 -13.9115,42.8256 -1.4976,3.85 -4.1039,10.6 -5.7917,15 -1.6879,4.4 -4.613,11.375 -6.5003,15.5 -1.8873,4.125 -4.2671,9.6023 -5.2883,12.1719 -1.9271,4.8486 -16.0776,33.1923 -17.8872,35.8281 -0.5663,0.825 -1.0366,1.2007 -1.0451,0.835 z m -600.0153,-67.8892 c -11.8632,-0.9323 -25.1364,-2.7447 -25.9127,-3.5384 -0.6905,-0.706 8.8631,0.2874 17.4127,1.8105 8.2519,1.4701 59.0676,1.3986 68.5,-0.096 4.125,-0.6538 10.425,-1.6512 14,-2.2165 3.575,-0.5652 8.525,-1.4193 11,-1.8979 8.7274,-1.6875 11.3473,-2.021 10.6867,-1.3605 -0.63,0.6301 -2.2279,0.9805 -15.6867,3.4399 -23.6557,4.3227 -54.9135,5.8306 -80,3.8593 z m 389.1681,-25.147 c -0.6724,-10.8044 -11.6814,-38.7639 -23.0794,-58.6145 -13.3016,-23.1661 -42.054,-50.5835 -65.3387,-62.3052 -8.7202,-4.3899 -9.2475,-5.5235 -5.418,-11.649 5.6999,-9.1173 14.9079,-30.385 20.1302,-46.495 1.5628,-4.8207 3.0556,-8.5507 3.3174,-8.2889 0.5515,0.5515 -1.6436,7.6595 -5.8841,19.0538 -4.0256,10.8169 -3.7103,10.1078 -11.7831,26.5 -3.9275,7.975 -7.1345,14.9526 -7.1266,15.5059 0.01,0.5532 1.4767,1.6285 3.2642,2.3896 10.0289,4.27 29.1797,18.0201 42.5421,30.5447 7.4535,6.9862 18.073,19.6855 23.4892,28.0894 8.1603,12.6616 22.7187,43.9135 22.7187,48.769 0,0.8708 0.45,1.8615 1,2.2014 0.55,0.3399 1,1.746 1,3.1247 0,1.3787 0.4761,3.3962 1.0579,4.4834 0.5818,1.0871 0.8824,3.645 0.6681,5.6842 -0.2772,2.6366 -0.4383,2.9273 -0.5579,1.0065 z m -507.67603,-9.4483 c -2.74563,-1.4572 -7.85054,-4.3822 -11.34425,-6.5 -3.49371,-2.1178 -6.53583,-3.8505 -6.76025,-3.8505 -0.22443,0 -2.76594,-1.645 -5.6478,-3.6556 -13.45652,-9.388 -18.27821,-12.8194 -18.73974,-13.3362 -0.275,-0.3079 -2.525,-2.121 -5,-4.029 -8.04917,-6.2052 -11.28753,-9.1864 -26.00362,-23.9393 -16.93183,-16.9742 -18.14534,-18.3343 -28.14084,-31.5399 -20.03829,-26.4738 -34.51375,-52.8054 -43.3713,-78.8947 -3.13632,-9.2378 -0.79313,-5.4922 2.90945,4.6509 3.93848,10.7892 17.3142,39.0084 18.75935,39.5771 0.46582,0.1833 0.84696,0.8342 0.84696,1.4463 0,0.6121 1.04659,2.7121 2.32576,4.6666 1.27917,1.9546 3.94709,6.0288 5.92871,9.0538 17.12522,26.1422 41.41444,53.2088 64.35949,71.7189 16.48109,13.2955 50.2902,35.2811 54.25471,35.2811 0.62223,0 1.13133,0.45 1.13133,1 0,1.3215 0.20646,1.3834 -5.50796,-1.6495 z m 127.50793,-97.8608 c -14.8052,-1.7519 -23.0631,-3.7089 -42.5,-10.0718 -12.594,-4.1229 -17.8793,-6.4829 -27.4033,-12.2362 -13.2716,-8.0173 -22.22867,-15.2502 -36.09902,-29.1504 -14.16162,-14.192 -25.38204,-29.2888 -32.42015,-43.62035 -3.72338,-7.58185 -10.5933,-26.6327 -10.55063,-29.25775 0.0148,-0.90927 1.53681,2.84678 3.38229,8.34678 6.18841,18.44299 13.51827,32.21722 24.96014,46.90512 7.8646,10.0957 27.47199,29.6838 34.6307,34.5966 1.925,1.321 3.72497,2.7147 3.99997,3.0971 0.7853,1.0917 15.9362,10.3284 21.8931,13.347 6.9898,3.542 25.1961,9.762 36.6069,12.5063 4.95,1.1905 9.9,2.3932 11,2.6725 1.1,0.2794 7.625,1.1046 14.5,1.8337 15.1959,1.6116 32.5426,0.2649 52.3635,-4.0653 3.7749,-0.8247 7.0905,-1.2724 7.368,-0.9949 0.2775,0.2775 -0.7861,0.7768 -2.3635,1.1096 -1.5774,0.3328 -4.668,1.0066 -6.868,1.4974 -5.9358,1.324 -10.2298,1.9477 -24.2824,3.5268 -14.4794,1.627 -14.1065,1.6276 -28.2176,-0.042 z m 658.4167,-8.9897 c 0.3646,-3.85 1.0907,-11.275 1.6135,-16.5 4.0742,-40.7179 4.0532,-76.70271 -0.072,-123.50002 -1.0982,-12.45751 -1.9061,-19.01248 -4.4521,-36.11933 -1.6032,-10.7729 -1.7903,-12.99837 -1.0287,-12.23676 0.7962,0.79619 4.6978,28.77657 6.3942,45.85609 2.6772,26.95404 3.3882,46.45246 2.7529,75.50002 -0.7829,35.8034 -3.3385,71.6268 -5.2365,73.4056 -0.3488,0.3269 -0.3358,-2.5556 0.029,-6.4056 z m -547.4167,-19.7792 c 0,-0.2185 3.5237,-3.1286 7.8304,-6.467 16.8453,-13.0574 38.8708,-37.8564 46.1452,-51.9557 1.3615,-2.639 2.7245,-5.02312 3.0288,-5.29812 0.8976,-0.81115 6.9956,-14.55829 6.9956,-15.77074 0,-0.61118 0.4982,-1.41914 1.1072,-1.79547 3.8504,-2.37972 -7.9299,20.59873 -18.4772,36.04123 -9.0774,13.2904 -34.4476,38.3917 -45.38,44.899 -0.6875,0.4092 -1.25,0.5653 -1.25,0.3468 z M 793.51943,938.23414 c -0.80555,-7.5222 0.0207,-34.96088 1.44622,-48.02346 1.77686,-16.28275 4.36844,-32.1136 5.43109,-33.17625 0.90232,-0.90232 0.78465,1.41103 -0.31417,6.17625 -3.65339,15.84355 -6.5668,51.82679 -5.60688,69.25 0.72337,13.12954 0.18172,16.39975 -0.95626,5.77346 z M 930.19001,897.0099 c -0.15914,-3.74025 1.2378,-10.9805 4.013,-20.79922 13.16456,-46.57645 44.99627,-85.18445 87.85079,-106.55234 10.9791,-5.47435 29,-12.0363 29,-10.55979 0,0.23429 -2.5875,1.21787 -5.75,2.18573 -16.5212,5.0562 -40.9523,18.46491 -55.74997,30.59771 -4.47105,3.66587 -15.41124,14.53071 -20,19.86224 -20.31535,23.60373 -33.1859,52.11116 -38.81218,85.96645 -0.34626,2.08361 -0.43814,1.96689 -0.55164,-0.70078 z m 316.76979,-59.04922 c -26.6555,-44.28572 -65.7278,-72.34538 -114.406,-82.16035 -20.904,-4.21487 -47.4333,-3.85973 -70,0.93707 -2.75,0.58455 -6.35,1.26316 -8,1.50803 l -3,0.44523 3,-1.00207 c 16.5212,-5.51846 48.4181,-7.59173 69.0872,-4.49062 10.0851,1.51315 30.0953,6.1581 31.9128,7.4079 0.55,0.37822 2.8,1.28711 5,2.01977 5.1068,1.70071 22.4873,10.31618 29,14.37522 14.3,8.91247 30.2719,22.8406 40.9498,35.70982 8.5437,10.29704 20.8989,29 19.1575,29 -0.2443,0 -1.4599,-1.6875 -2.7013,-3.75 z m -745.33164,-4.91621 c 3.55064,-15.3732 26.78626,-78.0263 30.16357,-81.33379 0.88607,-0.86776 -0.92611,4.30393 -3.32883,9.5 -4.43247,9.58554 -12.20647,30.11953 -17.7938,47 -7.81873,23.62194 -7.61527,22.96038 -7.61527,24.76198 0,0.89099 -0.46804,1.90925 -1.04009,2.26279 -0.67969,0.42007 -0.81329,-0.33911 -0.38558,-2.19098 z m 327.92762,-53.83379 c 14.82552,-27.91015 41.59161,-61.32824 65.49805,-81.77581 5.225,-4.46903 9.725,-8.38434 10,-8.70069 0.275,-0.31635 2.525,-2.13208 5,-4.03496 2.475,-1.90288 5.01723,-3.91625 5.64939,-4.47416 3.87041,-3.41576 27.54602,-18.72213 35.60061,-23.01591 8.01281,-4.27152 5.2833,-2.06174 -5,4.04794 -25.29317,15.0276 -41.73918,27.86347 -63.30797,49.41098 -8.55689,8.54843 -18.94608,19.81761 -23.08709,25.04261 -8.00471,10.10007 -22.85494,31.25799 -22.85494,32.56265 0,0.42893 -0.62102,1.4903 -1.38004,2.35861 -0.75901,0.8683 -3.07014,4.72874 -5.13584,8.57874 -2.0657,3.85 -4.2074,7.45 -4.75933,8 -0.55194,0.55 1.14779,-3.05 3.77716,-8 z m 874.16472,-0.16667 c -0.3667,-0.36667 -0.6667,-1.27157 -0.6667,-2.0109 0,-0.73932 -0.8718,-3.25182 -1.9374,-5.58333 -1.0656,-2.33151 -4.4909,-10.0891 -7.6118,-17.2391 -6.183,-14.16501 -19.4094,-40.94988 -24.4046,-49.42165 -1.7254,-2.92638 -2.9249,-5.53298 -2.6654,-5.79245 0.2595,-0.25947 1.1566,0.80756 1.9937,2.37117 0.8371,1.56361 2.884,5.31793 4.5487,8.34293 4.9175,8.93557 19.9422,39.58449 22.146,45.1754 1.1193,2.83991 2.8882,7.03597 3.9308,9.3246 4.8565,10.66052 6.8589,17.02559 4.6667,14.83333 z m -349.2079,-22.58918 c -23.7505,-35.21167 -52.1945,-63.75337 -85.2088,-85.50163 -6.1875,-4.07603 -11.25,-7.62462 -11.25,-7.88576 0,-0.55132 0.2984,-0.3795 9.256,5.33094 32.181,20.51507 63.0648,51.04404 87.1593,86.15798 3.1497,4.59013 5.5474,8.525 5.3282,8.74416 -0.2191,0.21915 -2.5972,-2.86141 -5.2847,-6.84569 z m 297.4926,-80.46436 c -8.8576,-13.89369 -13.3692,-20.79402 -13.9133,-21.27979 -0.3079,-0.275 -3.0043,-4.1 -5.9919,-8.5 -2.9876,-4.4 -5.7043,-8.225 -6.0372,-8.5 -0.333,-0.275 -1.6842,-2.075 -3.0029,-4 -2.7137,-3.96141 -11.0373,-14.45729 -21.412,-27 -26.6718,-32.2454 -65.7908,-69.94629 -97.5941,-94.05619 -4.675,-3.5441 -8.725,-6.67419 -9,-6.95577 -3.0212,-3.09349 -38.9138,-27.23032 -52.4957,-35.302 -1.0976,-0.65232 -3.1226,-1.92171 -4.5,-2.82086 -8.7383,-5.70441 -57.1926,-30.86518 -59.4398,-30.86518 -0.2611,0 -3.3074,-1.29916 -6.7696,-2.88702 -9.1507,-4.1968 -19.4214,-8.60789 -22.188,-9.52946 -1.0412,-0.34683 -1.6475,-0.87621 -1.3473,-1.17639 0.3002,-0.30019 2.5383,0.36191 4.9737,1.47134 2.4353,1.10943 6.8666,2.97077 9.8473,4.13631 5.7072,2.2317 8.1199,3.32571 27.4194,12.43326 30.8745,14.5698 68.4062,36.94763 98,58.43133 9.3195,6.76551 34.1833,26.47804 40.7403,32.29979 2.0571,1.82646 6.853,6.02084 10.6576,9.32084 9.4426,8.19037 40.8133,39.8143 51.3439,51.75835 15.727,17.83798 35.6119,43.37947 48.457,62.24165 8.0623,11.83905 17.3888,26.74577 16.9857,27.14882 -0.2259,0.22592 -2.3558,-2.64014 -4.7331,-6.36903 z M 577.67361,667.46068 c 3.0482,-5.16425 14.38572,-21.51442 22.70946,-32.75 19.29264,-26.04163 36.3111,-45.76161 59.11703,-68.50128 26.64564,-26.56822 50.85578,-47.08579 81.627,-69.17712 14.54272,-10.44053 14.92943,-10.69018 14.91798,-9.63062 -0.005,0.44496 -2.80636,2.60902 -6.22566,4.80902 -6.17972,3.97607 -17.80992,12.37672 -18.76559,13.55465 -0.275,0.33895 -1.22663,1.02782 -2.11472,1.53081 -0.8881,0.503 -3.31212,2.26454 -5.38673,3.91454 -2.0746,1.65 -6.52298,5.17972 -9.88528,7.84382 -21.56859,17.08976 -36.30883,30.45806 -58.61142,53.15618 -26.71639,27.1902 -48.76131,54.43543 -73.42852,90.75 -2.14817,3.1625 -4.08253,5.75 -4.29857,5.75 -0.21604,0 -0.0608,-0.5625 0.34502,-1.25 z m 619.88019,-32.1308 c -12.8297,-4.57267 -27.068,-8.311 -40,-10.50218 -19.8268,-3.35944 -58.8066,-5.45201 -76.5,-4.10679 -12.9106,0.98159 -21.5526,1.20904 -20.8934,0.54991 0.2419,-0.24192 7.9132,-0.88182 17.0474,-1.422 17.3442,-1.0257 49.6814,-0.10593 66.346,1.88709 16.1726,1.93417 41.7158,7.43515 46.7365,10.06516 0.955,0.50029 2.6159,0.90961 3.6909,0.90961 1.075,0 2.2327,0.45 2.5726,1 0.3399,0.55 1.379,1.03337 2.309,1.07416 1.812,0.0795 10.3675,3.78588 8.691,3.76513 -0.55,-0.007 -5.05,-1.45584 -10,-3.22009 z m 153.1487,-11.1192 c 0.415,-3.18845 4.2272,-11.17866 8.7524,-18.34467 6.3698,-10.08719 23.3618,-23.30083 35.0989,-27.29434 6.1831,-2.10377 38.2984,-1.84773 45.5,0.36275 3.025,0.9285 6.4,2.39732 7.5,3.26404 1.7657,1.3912 1.5313,1.38472 -2,-0.0552 -6.9188,-2.82129 -8.9556,-3.20292 -20.6214,-3.86369 -14.1851,-0.80348 -29.066,0.48121 -34.3786,2.96792 -15.885,7.43552 -28.7535,20.2097 -35.9211,35.65775 -1.8643,4.01801 -3.5991,7.98047 -3.8552,8.80547 -0.256,0.825 -0.2898,0.15 -0.075,-1.5 z M 757.55383,485.97652 c 0.55,-0.57983 5.275,-3.80039 10.5,-7.1568 5.225,-3.35641 9.97291,-6.44152 10.55092,-6.8558 1.21863,-0.87344 1.96492,-1.31353 17.94908,-10.58447 14.48646,-8.40226 45.79814,-24.13299 60.38736,-30.3381 5.83695,-2.48258 11.96264,-5.13628 13.61264,-5.89712 5.13408,-2.36739 11.5,-4.37828 11.5,-3.63267 0,0.39169 -1.8286,1.28286 -4.06355,1.98039 -2.23496,0.69752 -6.17246,2.20997 -8.75,3.36099 -11.52221,5.14532 -13.20296,5.85774 -13.81962,5.85774 -0.9555,0 -43.81059,21.32144 -50.86683,25.30748 -3.3,1.86415 -7.8,4.41026 -10,5.65803 -2.2,1.24776 -5.19447,3.11597 -6.65438,4.15157 -1.4599,1.03561 -2.92932,1.88292 -3.26538,1.88292 -0.58812,0 -7.71773,4.42627 -16.08024,9.98309 -5.9225,3.93544 -12.14426,7.48906 -11,6.28275 z m 197.5,-88.22339 c 6.70225,-2.14378 22.68115,-5.80705 35,-8.02399 3.575,-0.64337 8.525,-1.55868 10.99997,-2.03403 2.475,-0.47535 7.425,-1.33103 11,-1.90153 3.575,-0.57049 9.2,-1.46895 12.5,-1.99658 8.2017,-1.31135 23.1309,-2.44743 22.425,-1.70648 -0.3163,0.33194 -5.0413,1.05784 -10.5,1.61311 -10.5109,1.06919 -19.3965,2.28047 -28.425,3.87488 -3.025,0.53421 -8.19997,1.41783 -11.49997,1.96359 -7.14768,1.1821 -27.74197,5.64244 -35.56561,7.70284 -5.77924,1.522 -10.31948,1.9108 -5.93439,0.50819 z m 306.99997,-1.12817 c -12.7864,-3.18098 -34.5965,-7.46497 -50.5,-9.91929 -3.85,-0.59415 -9.5021,-1.51109 -12.5602,-2.03764 -3.0581,-0.52654 -7.7831,-1.00221 -10.5,-1.05703 -2.7169,-0.0548 -6.0648,-0.47934 -7.4398,-0.94337 -3.1098,-1.04948 9.8089,-0.27314 19,1.14179 3.575,0.55035 9.2,1.41724 12.5,1.92642 8.2451,1.27219 28.0838,4.86578 33.25,6.02292 2.3375,0.52355 6.1625,1.38064 8.5,1.90463 10.9655,2.45811 17.0624,4.02631 17.5502,4.51416 0.8588,0.85872 -1.8019,0.43721 -9.8002,-1.55259 z"
         id="path4" />
      <path
         style="fill:#fe4543;fill-opacity:1"
         d="m 1177.0538,1301.7107 c -10.539,-0.3675 -1.5073,-0.5909 25,-0.6184 27.6755,-0.029 37.1694,0.1958 28.5,0.6737 -14.6028,0.805 -29.2635,0.7899 -53.5,-0.055 z m -234.21329,-8.1566 c 2.35705,-0.9033 77.91939,-0.9651 82.00879,-0.067 1.8125,0.398 -16.2834,0.7237 -40.21329,0.7237 -23.92984,0 -42.73782,-0.2955 -41.7955,-0.6566 z M 479.50638,998.21068 c 3.1e-4,-20.35 0.13365,-28.53307 0.29631,-18.1846 0.16266,10.34847 0.16241,26.99852 -5.7e-4,37.00002 -0.16297,10.0015 -0.29605,1.5346 -0.29574,-18.81542 z M 1101.2633,380.45454 c 17.4225,-0.56393 34.3277,-0.57054 43,-0.0168 11.901,0.75987 7.1004,0.91525 -28.7095,0.92926 l -43,0.0168 z"
         id="path3" />
      <path
         style="fill:#fe4543;fill-opacity:1"
         d="m 1087.5474,1623.8246 c -0.9669,-0.9471 -6.8206,-1.463 -30.4621,-2.6848 -6.3077,-0.326 -12.2406,-1.0059 -13.1843,-1.5109 -0.9436,-0.505 -4.8053,-0.9182 -8.5814,-0.9182 -3.7762,0 -7.2933,-0.4136 -7.8158,-0.9191 -0.5225,-0.5055 -3.875,-1.1403 -7.45,-1.4106 -6.1604,-0.4659 -10.253,-1.1192 -22.99997,-3.6718 -7.66533,-1.535 -13.81129,-2.6922 -18.5,-3.4832 -2.2,-0.3711 -4.9,-1.061 -6,-1.533 -1.1,-0.4721 -3.8,-1.0986 -6,-1.3924 -7.4718,-0.9976 -24.74423,-5.2971 -32.5,-8.09 -1.925,-0.6932 -5.41015,-1.5784 -7.74476,-1.9671 -2.33462,-0.3888 -4.49868,-1.1177 -4.80902,-1.6198 -0.31034,-0.5022 -1.86114,-0.913 -3.44622,-0.913 -1.58509,0 -3.16009,-0.45 -3.5,-1 -0.33992,-0.55 -1.71648,-1 -3.05902,-1 -1.34254,0 -2.44098,-0.3989 -2.44098,-0.8865 0,-0.4876 -1.35,-1.1626 -3,-1.5 -1.65,-0.3374 -4.35,-0.8896 -6,-1.227 -1.65,-0.3374 -3,-1.0124 -3,-1.5 0,-0.4876 -0.87345,-0.8865 -1.94099,-0.8865 -1.06754,0 -2.2191,-0.45 -2.55901,-1 -0.33992,-0.55 -1.49148,-1 -2.55902,-1 -1.06754,0 -1.94098,-0.45 -1.94098,-1 0,-0.55 -0.70336,-1 -1.56301,-1 -2.32719,0 -13.9826,-5.7958 -21.89176,-10.8859 -8.31928,-5.3541 -15.37775,-11.8091 -20.35437,-18.6141 -2.01111,-2.75 -4.00179,-5.15 -4.42372,-5.3334 -0.42193,-0.1833 -0.76714,-1.1583 -0.76714,-2.1666 0,-1.0084 -0.3375,-1.9834 -0.75,-2.1667 -1.22782,-0.5457 -5.25,-8.8726 -5.25,-10.8688 0,-1.0156 -0.40028,-2.0939 -0.88952,-2.3962 -0.48923,-0.3024 -1.22502,-2.2415 -1.63509,-4.3091 -1.12283,-5.6613 -1.4413,-32.2592 -0.38627,-32.2592 0.50098,0 0.91088,-1.1038 0.91088,-2.453 0,-2.4381 0.58446,-4.1719 4.14163,-12.2861 1.0221,-2.3315 1.85837,-4.455 1.85837,-4.7188 0,-1.1654 9.21546,-14.3967 12.39543,-17.797 9.13199,-9.7648 26.23086,-19.7575 40.60457,-23.7296 2.475,-0.6839 5.4,-1.6095 6.5,-2.0569 4.58893,-1.8663 18.63902,-2.3412 66.5,-2.2478 52.29827,0.102 59.90127,0.3908 141.49997,5.3751 21.9983,1.3438 127.3895,1.7226 144.5,0.5194 5.775,-0.4061 11.4,-1.1383 12.5,-1.6271 1.1,-0.4888 4.475,-1.0953 7.5,-1.3477 3.025,-0.2525 7.6375,-0.9476 10.25,-1.5448 9.7459,-2.2277 14.3392,-3.2119 17.5093,-3.7517 1.7926,-0.3053 3.5066,-0.9553 3.809,-1.4445 0.3024,-0.4892 1.6543,-0.8895 3.0043,-0.8895 1.35,0 3.236,-0.3891 4.191,-0.8646 0.955,-0.4755 5.1114,-1.9033 9.2364,-3.1728 4.125,-1.2696 7.9275,-2.6806 8.45,-3.1355 0.5225,-0.4549 1.5913,-0.8271 2.375,-0.8271 3.1057,0 29.9727,-12.513 39.175,-18.2453 7.6657,-4.7751 19.7823,-12.7502 21.9637,-14.4563 0.845,-0.6609 4.162,-3.217 7.3712,-5.6802 11.2639,-8.6456 25.4204,-23.1956 35.1606,-36.1379 10.3206,-13.7136 16.2359,-24.2981 23.7403,-42.4803 2.1842,-5.2921 2.6688,-6.6239 3.8209,-10.5 0.6539,-2.2 1.5836,-4.7814 2.0661,-5.7365 0.4825,-0.955 0.8772,-3.0025 0.8772,-4.55 0,-1.5474 0.4039,-3.241 0.8976,-3.7635 1.7608,-1.8636 4.434,-27.1644 4.4324,-41.95 0,-14.3306 -1.3844,-32.5 -2.4736,-32.5 -0.471,0 -0.8564,-1.9985 -0.8564,-4.441 0,-2.4425 -0.45,-4.7191 -1,-5.059 -0.55,-0.3399 -1,-1.4976 -1,-2.5726 0,-1.075 -0.4061,-2.736 -0.9025,-3.691 -0.4964,-0.955 -1.4747,-3.7614 -2.1739,-6.2364 -0.6992,-2.475 -1.6431,-4.9275 -2.0975,-5.45 -0.4543,-0.5225 -0.8261,-1.5227 -0.8261,-2.2227 0,-0.7 -1.0976,-3.6475 -2.4392,-6.55 -1.3415,-2.9025 -3.1182,-6.8523 -3.948,-8.7773 -1.3166,-3.054 -4.9657,-9.813 -9.6905,-17.9491 -0.7823,-1.347 -2.2098,-3.3444 -3.1723,-4.4386 -0.9625,-1.0942 -1.75,-2.3867 -1.75,-2.8723 0,-0.4856 -0.5625,-1.4729 -1.25,-2.194 -0.6875,-0.7211 -2.825,-3.273 -4.75,-5.6709 -6.4566,-8.0426 -21.816,-22.8624 -30.1699,-29.11 -2.0113,-1.5042 -4.2584,-3.31 -4.9935,-4.013 -2.4113,-2.3058 -9.7045,-6.8247 -18.3366,-11.3614 -2.75,-1.4453 -5.4812,-3.0121 -6.0693,-3.4818 -0.7187,-0.5739 1.167,-5.3241 5.75,-14.4844 3.7506,-7.4967 6.8193,-14.2591 6.8193,-15.0275 0,-0.7684 0.45,-1.397 1,-1.397 0.55,0 1,-0.9 1,-2 0,-1.1 0.45,-2 1,-2 0.55,0 1,-0.8788 1,-1.953 0,-1.0741 0.5061,-3.2116 1.1245,-4.75 0.6185,-1.5383 1.4625,-3.697 1.8755,-4.797 0.4131,-1.1 1.257,-3.2587 1.8755,-4.7971 0.6185,-1.5384 1.1245,-3.6759 1.1245,-4.75 0,-1.0741 0.399,-1.9529 0.8865,-1.9529 0.4876,0 1.1256,-1.2375 1.4177,-2.75 0.2922,-1.5125 1.0496,-4.55 1.6831,-6.75 0.6335,-2.2 1.3795,-5.125 1.6576,-6.50002 0.2782,-1.375 0.8912,-3.4 1.3623,-4.5 0.4711,-1.1 1.0807,-3.35 1.3547,-5 0.274,-1.65 1.1596,-6.6 1.968,-11 6.7133,-36.54106 6.8738,-66.07665 0.5678,-104.5 -1.1283,-6.875 -2.2894,-14.19032 -2.5802,-16.25627 -0.2908,-2.06595 -0.9312,-4.005 -1.4231,-4.30902 -0.4919,-0.30401 -0.8944,-1.63001 -0.8944,-2.94668 0,-1.31666 -0.4031,-3.4276 -0.8958,-4.69098 -0.4928,-1.26338 -1.4366,-4.32205 -2.0975,-6.79705 -0.6609,-2.475 -1.6077,-5.2814 -2.1041,-6.23643 -0.4964,-0.95504 -0.9026,-2.35753 -0.9026,-3.11665 0,-1.32758 -1.0516,-4.20964 -6.8952,-18.89692 -2.9419,-7.39425 -13.5401,-29.16686 -18.1983,-37.38605 -1.0485,-1.85017 -2.8607,-5.0492 -4.027,-7.10896 -1.1663,-2.05975 -3.4869,-5.77225 -5.157,-8.25 -20.6605,-30.65252 -45.1702,-56.95253 -71.5451,-76.77108 -3.1225,-2.34635 -6.3524,-4.82873 -7.1774,-5.51639 -0.825,-0.68767 -4.425,-3.13186 -8,-5.43154 -3.575,-2.29969 -6.9525,-4.54231 -7.5056,-4.98361 -0.5532,-0.44131 -3.0282,-1.88173 -5.5,-3.20094 -2.4719,-1.31921 -5.1694,-2.94084 -5.9944,-3.60362 -0.825,-0.66278 -2.85,-1.89124 -4.5,-2.72993 -1.65,-0.83868 -6.8357,-3.49205 -11.5239,-5.89638 -4.6881,-2.40433 -12.3381,-5.87923 -17,-7.72202 -4.6618,-1.84278 -9.6011,-3.81549 -10.9761,-4.38379 -1.375,-0.56831 -3.625,-1.47558 -5,-2.01616 -1.375,-0.54058 -3.2814,-1.38037 -4.2364,-1.8662 -0.955,-0.48583 -2.841,-0.88333 -4.191,-0.88333 -1.35,0 -2.7327,-0.45 -3.0726,-1 -0.3399,-0.55 -1.4976,-1 -2.5726,-1 -1.075,0 -2.7359,-0.39476 -3.6909,-0.87725 -2.8892,-1.45959 -8.7469,-3.12275 -10.9985,-3.12275 -1.1659,0 -2.3981,-0.45 -2.738,-1 -0.3399,-0.55 -2.6165,-1 -5.059,-1 -2.4425,0 -4.441,-0.4116 -4.441,-0.91467 0,-0.50307 -2.8125,-1.15805 -6.25,-1.4555 -3.4375,-0.29745 -11.425,-1.10518 -17.75,-1.79496 -14.9122,-1.62628 -67.4383,-1.58114 -79.5,0.0683 -4.95,0.67692 -11.25,1.46711 -14,1.75598 -2.75,0.28887 -5.4275,0.93374 -5.95,1.43303 -0.5225,0.4993 -2.4084,0.90782 -4.191,0.90782 -1.7825,0 -3.5191,0.45 -3.859,1 -0.3399,0.55 -2.1399,1 -4,1 -1.8601,0 -3.6601,0.45 -4,1 -0.3399,0.55 -2.1665,1 -4.059,1 -1.8925,0 -3.441,0.45 -3.441,1 0,0.55 -1.35,1 -3,1 -1.65,0 -3,0.45 -3,1 0,0.55 -1.26,1 -2.8,1 -1.54,0 -3.2275,0.35813 -3.75,0.79586 -0.5225,0.43772 -2.74997,1.36746 -4.94997,2.0661 -2.2,0.69863 -4.9,1.6408 -6,2.0937 -1.1,0.4529 -5.56366,2.25943 -9.91925,4.01452 -7.69198,3.09948 -26.57297,12.02041 -27.58075,13.03141 -0.275,0.27588 -1.84535,1.17588 -3.48965,2 -1.64431,0.82413 -6.16181,3.52341 -10.03889,5.99841 -3.87708,2.475 -7.75914,4.95 -8.62679,5.5 -4.57342,2.89907 -17.41309,11.93783 -17.84467,12.56213 -0.275,0.3978 -2.8742,2.50491 -5.77598,4.68247 -10.66984,8.00684 -31.39849,27.51099 -40.21397,37.8384 -1.36947,1.60435 -4.06947,4.74711 -6,6.98392 -1.93053,2.2368 -4.63505,5.57057 -6.01005,7.40836 -1.375,1.83779 -2.98021,3.83268 -3.56713,4.43308 -2.62119,2.68139 -18.43287,27.22189 -18.43287,28.60871 0,0.44894 -0.38811,0.96626 -0.86245,1.14959 -0.76472,0.29556 -7.33601,12.13618 -12.94952,23.33334 -3.22292,6.4287 -6.04386,13.06953 -7.40676,17.43645 -0.69753,2.23495 -1.55859,4.06355 -1.91346,4.06355 -0.35488,0 -0.96058,1.6875 -1.34601,3.75 -0.38543,2.0625 -1.06208,4.2 -1.50367,4.75 -1.05528,1.31434 -4.19012,12.97903 -4.77193,17.75627 -0.25161,2.06594 -0.85994,4.005 -1.35184,4.30901 -0.4919,0.30402 -0.89436,2.07464 -0.89436,3.93472 0,1.86008 -0.39032,3.62319 -0.86736,3.91802 -0.47705,0.29483 -1.18423,2.68389 -1.5715,5.30902 -0.38728,2.62513 -1.15124,7.47296 -1.69769,10.77296 -0.54645,3.3 -1.20558,9.15 -1.46475,13 -0.25916,3.85 -0.92012,7.9 -1.4688,9 -0.6219,1.24679 -0.83572,11.98 -0.56775,28.5 0.39569,24.39486 1.01534,33.05992 3.53977,49.5 1.98279,12.91272 2.39352,15.03478 3.09683,16 0.40076,0.55 1.01226,3.53079 1.35888,6.62398 0.34662,3.09319 1.30518,6.91824 2.13013,8.50004 0.82495,1.5818 1.50269,3.6496 1.50607,4.5951 0.014,3.898 8.30414,27.094 14.13514,39.5502 2.12906,4.5482 3.87103,8.6785 3.87103,9.1786 0,0.5001 0.5625,1.5213 1.25,2.2693 1.43106,1.5571 2.95869,4.12 6.85432,11.4996 1.51466,2.8692 4.13582,7.2253 5.8248,9.6802 1.68898,2.4548 3.07088,4.9447 3.07088,5.5332 0,0.5884 0.3375,1.0706 0.75,1.0716 0.4125,9e-4 2.08459,2.1384 3.71577,4.75 2.76238,4.4225 15.17456,21.1304 16.52808,22.2482 0.333,0.275 4.62458,5 9.53685,10.5 4.91226,5.5 9.38992,10.4644 9.95034,11.0321 3.62956,3.6763 17.83706,16.5564 21.4743,19.4679 2.40483,1.925 5.98617,4.8969 7.95854,6.6044 4.83289,4.1836 22.74198,16.3956 24.04453,16.3956 0.57287,0 1.04159,0.45 1.04159,1 0,0.55 0.675,1 1.5,1 0.825,0 1.5,0.3401 1.5,0.7559 0,0.4157 1.4625,1.3922 3.25,2.1699 1.7875,0.7777 3.475,1.6966 3.75,2.0421 0.76049,0.9554 9.82212,6.1295 16,9.1359 8.33997,4.0586 15.38474,7.2476 16.5,7.4694 0.55,0.1093 3.475,1.3034 6.5,2.6535 3.025,1.3502 10.225,3.9479 15.99997,5.7728 5.775,1.8249 11.4,3.6342 12.5,4.0206 5.8053,2.0397 9.3585,2.9799 11.262,2.9799 1.166,0 2.3981,0.45 2.738,1 0.3399,0.55 2.3649,1 4.5,1 2.1351,0 4.1601,0.45 4.5,1 0.3399,0.55 2.8149,1 5.5,1 2.6851,0 5.1601,0.45 5.5,1 0.3399,0.55 3.2015,1 6.359,1 3.1576,0 6.1685,0.4022 6.691,0.8938 1.4489,1.3633 17.8463,2.3762 38.95,2.4061 17.7976,0.025 30.3332,-0.8664 47,-3.3427 3.85,-0.572 9.3625,-1.288 12.25,-1.5912 2.8875,-0.3031 5.25,-0.9595 5.25,-1.4586 0,-0.4991 1.7735,-0.9074 3.941,-0.9074 2.1675,0 4.2191,-0.45 4.559,-1 0.3399,-0.55 2.1399,-1 4,-1 1.8601,0 3.6601,-0.45 4,-1 0.3399,-0.55 1.9476,-1 3.5726,-1 1.625,0 3.736,-0.4066 4.691,-0.9035 0.955,-0.4969 5.3364,-2.0554 9.7364,-3.4634 18.9682,-6.0696 34.4508,-12.886 57.6816,-25.395 11.4068,-6.1421 17.1604,-7.5731 30.3499,-7.5483 7.1487,0.014 13.6421,0.5529 16,1.3292 6.7306,2.2158 9.4685,3.4376 9.4685,4.2251 0,0.4157 0.7064,0.7559 1.5699,0.7559 3.9251,0 21.3087,15.8914 22.9131,20.9463 0.3585,1.1295 1.0715,2.0537 1.5844,2.0537 0.5129,0 0.9326,0.81 0.9326,1.8 0,0.99 0.3742,2.2275 0.8314,2.75 2.2435,2.5634 3.274,10.4245 3.0823,23.5126 -0.1123,7.6655 -0.5888,13.9374 -1.0589,13.9374 -0.4701,0 -0.8548,0.9071 -0.8548,2.0157 0,2.6762 -2.3088,9.9843 -3.1542,9.9843 -0.3671,0 -1.6476,2.025 -2.8458,4.5 -1.1981,2.475 -2.5882,4.5 -3.0892,4.5 -0.5009,0 -0.9108,0.4508 -0.9108,1.0019 0,1.6449 -8.0036,8.8197 -15.7048,14.0783 -3.9627,2.7059 -7.4551,4.9198 -7.7609,4.9198 -0.6151,0 -9.0363,3.6357 -11.7707,5.0817 -0.955,0.505 -2.8941,0.9183 -4.309,0.9183 -1.4604,0 -2.3054,0.4323 -1.9546,1 0.3759,0.6082 -1.0896,1 -3.741,1 -2.3974,0 -4.7865,0.4073 -5.309,0.9052 -1.9114,1.8212 -19.2199,2.3492 -78.45,2.393 -37.354,0.028 -67.769,-0.4249 -79.5,-1.183 -66.8174,-4.3179 -93.9195,-5.3554 -137.99997,-5.2829 -45.27234,0.074 -70.5,0.8759 -70.5,2.2397 0,0.5104 -3.15,0.928 -7,0.928 -3.85,0 -7,0.4083 -7,0.9074 0,0.4991 -2.3625,1.1539 -5.25,1.4551 -9.25902,0.9658 -13.74856,1.8261 -14.31529,2.7431 -0.30401,0.4919 -1.50674,0.8944 -2.67273,0.8944 -2.25157,0 -8.10928,1.6631 -10.99842,3.1227 -0.95503,0.4825 -2.62136,0.8773 -3.70294,0.8773 -1.08159,0 -3.22519,0.506 -4.76357,1.1245 -4.69515,1.8876 -6.59705,2.595 -11.79705,4.3877 -6.38788,2.2022 -24.85948,10.946 -29.75,14.0826 -9.62209,6.1714 -12.28636,7.9409 -12.75,8.4684 -0.275,0.3128 -2.5982,1.9961 -5.16265,3.7407 -2.56446,1.7446 -4.81446,3.5149 -5,3.934 -0.18555,0.4192 -3.01743,3.0121 -6.29308,5.7621 -10.61439,8.9111 -29.54427,28.7577 -29.54427,30.9751 0,0.3672 -0.5625,1.295 -1.25,2.0616 -2.71438,3.0268 -3.75,4.4051 -3.75,4.9909 0,0.3366 -1.30917,2.5148 -2.90925,4.8405 -5.38586,7.8281 -11.8161,21.4312 -14.95247,31.6319 -5.34362,17.3795 -7.24875,30.1044 -8.72097,58.25 -0.33804,6.4625 -0.81299,11.75 -1.05546,11.75 -0.83106,0 -29.05733,-23.5112 -40.27765,-33.5494 -13.12588,-11.7431 -52.0842,-51.7331 -52.0842,-53.4635 0,-0.3617 -1.937,-2.6442 -4.30445,-5.0724 -2.36744,-2.4281 -4.95494,-5.358 -5.75,-6.5109 -0.79505,-1.1528 -2.94233,-3.8528 -4.77173,-6 -1.82939,-2.1471 -7.829,-9.9788 -13.33245,-17.4038 -5.50344,-7.425 -10.60621,-14.2483 -11.33948,-15.163 -0.73327,-0.9146 -4.14574,-5.8646 -7.58327,-11 -3.43752,-5.1353 -6.51728,-9.562 -6.84391,-9.837 -0.32662,-0.275 -1.48568,-2.3 -2.57567,-4.5 -1.09,-2.2 -2.50139,-4.675 -3.13643,-5.5 -2.3576,-3.0629 -14.36261,-23.1879 -14.36261,-24.0773 0,-0.5075 -0.45,-0.9227 -1,-0.9227 -0.55,0 -1,-0.9 -1,-2 0,-1.1 -0.45,-2 -1,-2 -0.55,0 -1,-0.9 -1,-2 0,-1.1 -0.41968,-2 -0.93262,-2 -0.77098,0 -2.32553,-3.0847 -2.51978,-5 -0.0279,-0.275 -1.06251,-1.9195 -2.29916,-3.6544 -1.23664,-1.7349 -2.24844,-3.8724 -2.24844,-4.75 0,-0.8776 -0.34015,-1.5956 -0.75589,-1.5956 -0.41574,0 -1.36133,-1.4625 -2.10131,-3.25 -0.73998,-1.7875 -2.97935,-6.625 -4.97637,-10.75 -1.99703,-4.125 -3.67567,-7.725 -3.73031,-8 -0.0546,-0.275 -1.56543,-3.65 -3.3573,-7.5 -1.79188,-3.85 -3.96032,-8.8 -4.81877,-11 -0.85845,-2.2 -1.94315,-4.4275 -2.41044,-4.95 -0.46729,-0.5225 -0.84961,-1.5399 -0.84961,-2.2609 0,-0.721 -0.84674,-3.2185 -1.88163,-5.55 -1.03489,-2.3315 -2.43031,-5.8141 -3.10092,-7.7391 -1.50329,-4.3152 -2.97218,-7.9523 -4.13413,-10.2365 -0.48583,-0.955 -0.88332,-2.894 -0.88332,-4.309 0,-1.4604 -0.43232,-2.3054 -1,-1.9545 -0.56769,0.3508 -1,-0.4942 -1,-1.9546 0,-2.4765 -0.31104,-3.3823 -2.84388,-8.2819 -0.63587,-1.23 -1.15612,-3.3409 -1.15612,-4.6909 0,-1.35 -0.45,-2.7327 -1,-3.0726 -0.55,-0.3399 -1,-1.6899 -1,-3 0,-1.3101 -0.45,-2.6601 -1,-3 -0.55,-0.3399 -1,-1.9149 -1,-3.5 0,-1.5851 -0.45,-3.1601 -1,-3.5 -0.55,-0.3399 -1,-1.572 -1,-2.738 0,-2.0022 -1.30896,-6.8093 -3.0666,-11.262 -0.43421,-1.1 -1.04858,-3.575 -1.36528,-5.5 -0.95091,-5.7801 -1.42109,-7.9299 -2.46999,-11.2933 -1.22007,-3.9123 -6.2386,-29.4941 -6.5514,-33.3956 -0.12396,-1.5461 -0.49781,-3.4861 -0.83077,-4.3111 -0.33297,-0.825 -0.83548,-3.75 -1.1167,-6.5 -0.28122,-2.75 -0.96081,-7.925 -1.51021,-11.5 -3.65626,-23.7921 -5.10356,-112.38905 -2.21348,-135.50002 0.75656,-6.05 1.58554,-13.925 1.84216,-17.5 0.25663,-3.575 0.91386,-7.04279 1.46052,-7.7062 0.54666,-0.6634 0.79246,-1.5634 0.54621,-2 -0.83839,-1.4865 5.31876,-38.64709 7.24129,-43.70373 0.50727,-1.33423 0.94865,-3.25032 0.98083,-4.25797 0.14654,-4.58863 1.3464,-10.3321 2.15845,-10.3321 0.49223,0 0.89497,-1.77344 0.89497,-3.94098 0,-2.16755 0.45,-4.2191 1,-4.55902 0.55,-0.33992 1,-1.91492 1,-3.5 0,-1.58508 0.45,-3.16008 1,-3.5 0.55,-0.33992 1,-2.13992 1,-4 0,-1.86008 0.45,-3.66008 1,-4 0.55,-0.33992 1,-1.91492 1,-3.5 0,-1.58508 0.45,-3.16008 1,-3.5 0.55,-0.33992 1,-1.68992 1,-3 0,-1.31008 0.45,-2.66008 1,-3 0.55,-0.33992 1,-1.91492 1,-3.5 0,-1.58508 0.45,-3.16008 1,-3.5 0.55,-0.33992 1,-1.71648 1,-3.05902 0,-1.34254 0.45,-2.44098 1,-2.44098 0.55,0 1,-1.35 1,-3 0,-1.65 0.45,-3 1,-3 0.55,0 1,-1.09844 1,-2.44098 0,-1.34255 0.45,-2.7191 1,-3.05902 0.55,-0.33992 1,-1.68992 1,-3 0,-1.31008 0.45,-2.66008 1,-3 0.55,-0.33992 1,-1.27138 1,-2.06992 0,-0.79853 0.84826,-3.35947 1.88502,-5.69098 1.03676,-2.33151 2.90693,-6.9391 4.15592,-10.2391 1.249,-3.3 2.65074,-6.4275 3.11498,-6.95 0.46424,-0.5225 0.84408,-1.54417 0.84408,-2.27038 0,-0.72621 1.8,-5.12704 4,-9.77962 2.2,-4.65259 4,-8.66636 4,-8.91951 0,-0.25314 2.025,-4.76511 4.5,-10.0266 2.475,-5.26148 4.5,-9.97604 4.5,-10.47678 0,-0.50075 0.3375,-1.06045 0.75,-1.24378 0.4125,-0.18333 2.325,-3.48333 4.25,-7.33333 1.925,-3.85 3.997,-7.675 4.60445,-8.5 0.60745,-0.825 2.40745,-3.975 4,-7 1.59255,-3.025 3.23305,-5.65 3.64555,-5.83334 0.4125,-0.18333 0.75,-0.70396 0.75,-1.15696 0,-1.30757 11.43446,-20.30324 18.09208,-30.05573 0.58047,-0.85032 2.25972,-3.38303 3.73166,-5.62824 6.8812,-10.49621 15.28654,-22.06152 19.42626,-26.72953 0.9625,-1.08533 1.75,-2.39819 1.75,-2.91747 0,-0.51928 0.80884,-1.67192 1.79744,-2.56144 0.98859,-0.88951 2.88628,-3.19229 4.21708,-5.11729 1.33081,-1.925 2.88446,-3.99124 3.45256,-4.59164 0.5681,-0.6004 2.15792,-2.60072 3.53292,-4.44514 3.19298,-4.28307 18.51388,-22.36325 22.47737,-26.52553 23.3028,-24.47151 40.48822,-40.9177 58.60212,-56.08132 18.92147,-15.83967 20.14863,-16.83763 22.54956,-18.33799 1.30402,-0.81489 2.37095,-1.82739 2.37095,-2.25 0,-0.42261 0.48214,-0.76838 1.07142,-0.76838 0.58929,0 1.64303,-0.5625 2.34164,-1.25 2.53714,-2.49677 12.80566,-10.01109 21.08694,-15.43105 2.2,-1.43986 4.225,-2.90552 4.5,-3.25701 0.275,-0.3515 4.325,-3.06146 9,-6.02215 4.675,-2.96069 8.65,-5.75583 8.83333,-6.21143 0.18333,-0.4556 0.71593,-0.82836 1.18355,-0.82836 1.13285,0 11.39171,-6.29435 11.81645,-7.25 0.18333,-0.4125 0.97083,-0.75 1.75,-0.75 0.77917,0 1.42018,-0.3375 1.42447,-0.75 0.004,-0.4125 1.01679,-1.22888 2.25,-1.81418 2.33334,-1.10743 12.43353,-6.57692 19.09298,-10.3393 5.77622,-3.26338 27.81251,-14.25962 39.14922,-19.5357 5.5,-2.55968 10.78139,-5.08301 11.73643,-5.6074 0.95503,-0.52438 2.41753,-0.95342 3.25,-0.95342 0.83246,0 1.51357,-0.45 1.51357,-1 0,-0.55 0.6811,-1 1.51356,-1 0.83247,0 2.29497,-0.3975 3.25,-0.88333 1.62488,-0.82658 3.61817,-1.66937 9.73644,-4.11667 1.375,-0.55 3.5125,-1.40613 4.75,-1.90251 1.2375,-0.49638 4.95,-1.89025 8.25,-3.09749 3.3,-1.20724 6.9,-2.56399 8,-3.01501 1.1,-0.45101 7.4,-2.46583 14,-4.47737 6.6,-2.01154 13.125,-4.02147 14.5,-4.46651 1.375,-0.44504 4.525,-1.36354 7,-2.04111 2.475,-0.67758 5.625,-1.5967 7,-2.0425 1.375,-0.44579 4.975,-1.34873 8,-2.00652 3.025,-0.65779 6.4,-1.55696 7.5,-1.99815 2.60456,-1.04467 7.01506,-1.99664 12,-2.59013 2.2,-0.26192 4.9,-0.87001 6,-1.35132 1.1,-0.4813 3.575,-1.1478 5.5,-1.4811 1.925,-0.3333 5.75,-1.06854 8.5,-1.63387 2.75,-0.56532 7.25,-1.26477 10,-1.55432 2.74997,-0.28956 5.42747,-0.93498 5.94997,-1.43428 0.5225,-0.4993 3.02,-0.90781 5.55,-0.90781 2.53,0 5.0275,-0.41209 5.55,-0.91575 0.5225,-0.50366 3.875,-1.18594 7.45,-1.51617 3.575,-0.33024 11,-1.06952 16.5,-1.64285 14.1405,-1.47404 84.6282,-2.55864 112,-1.72336 22.2163,0.67795 34.2505,1.6166 49,3.82194 3.85,0.57565 9.25,1.27749 12,1.55965 2.75,0.28215 5.9,0.91781 7,1.41256 1.1,0.49476 4.025,1.12161 6.5,1.39301 2.475,0.27139 6.75,0.95285 9.5,1.51435 2.75,0.56149 6.575,1.2936 8.5,1.6269 1.925,0.3333 4.4,0.99743 5.5,1.47585 1.1,0.47842 3.6875,1.12275 5.75,1.43186 8.3936,1.25793 10.7944,1.82483 11.3183,2.6725 0.3024,0.48923 1.7288,0.88951 3.1697,0.88951 2.6778,0 8.3856,1.55013 11.4985,3.12275 0.955,0.48249 2.8409,0.87725 4.1909,0.87725 1.35,0 2.7327,0.45 3.0726,1 0.3399,0.55 1.574,1 2.7425,1 1.1684,0 4.6293,0.85668 7.6909,1.90374 3.0617,1.04705 8.7166,2.86422 12.5666,4.03814 3.85,1.17392 11.5,3.72165 17,5.66163 9.8591,3.47749 11.3142,4.02157 16.75,6.26269 1.5125,0.62359 3.875,1.5838 5.25,2.1338 6.1183,2.4473 8.1116,3.29009 9.7365,4.11667 0.955,0.48583 2.4175,0.88333 3.25,0.88333 0.8324,0 1.5135,0.45 1.5135,1 0,0.55 0.4549,1 1.0109,1 2.7216,0 47.3455,22.11643 66.1021,32.76143 1.9872,1.12777 4.6872,2.65531 6,3.39453 1.3129,0.73922 2.612,1.57044 2.887,1.84716 1.0988,1.10566 11.1883,6.99688 11.9831,6.99688 0.4677,0 1.0003,0.34608 1.1836,0.76908 0.1833,0.42299 5.5083,4.27638 11.8333,8.5631 21.8437,14.80435 27.2793,18.67767 31.4599,22.41782 0.7685,0.6875 1.6544,1.25 1.9687,1.25 0.3143,0 1.4149,0.7875 2.4458,1.75 1.031,0.9625 5.8397,4.9 10.6861,8.75 4.8464,3.85 11.3303,9.25 14.4087,12 3.0784,2.75 8.4934,7.475 12.0332,10.5 14.3297,12.24565 47.7575,46.96336 60.6592,63 3.7612,4.675 7.3557,8.95 7.988,9.5 0.93,0.809 10.8284,13.79901 22.4789,29.5 4.2144,5.67961 20.8715,31.20994 20.8715,31.98975 0,0.46397 0.358,0.99358 0.7956,1.17691 0.4375,0.18334 2.9705,4.15834 5.6288,8.83334 2.6584,4.675 5.4745,9.23714 6.2582,10.1381 0.7837,0.90095 1.4941,2.55728 1.5787,3.68072 0.085,1.12344 0.5105,1.82224 0.9463,1.55288 0.4358,-0.26935 0.7924,0.21182 0.7924,1.06928 0,0.85746 0.45,1.55902 1,1.55902 0.55,0 1,0.9 1,2 0,1.1 0.45,2 1,2 0.55,0 1,0.9 1,2 0,1.1 0.4143,2 0.9206,2 0.5063,0 1.2159,1.34484 1.5769,2.98853 0.361,1.64369 1.0382,3.22451 1.5049,3.51292 0.9557,0.5907 12.7779,24.81733 19.0305,38.99855 0.97,2.2 2.6983,6.1089 3.8406,8.68645 1.1424,2.57755 2.6477,6.51505 3.3453,8.75 0.6975,2.23495 1.6086,4.06355 2.0247,4.06355 0.4161,0 0.7565,1.125 0.7565,2.5 0,1.375 0.45,2.5 1,2.5 0.55,0 1,1.09844 1,2.44098 0,1.34254 0.45,2.7191 1,3.05902 0.55,0.33992 1,1.49758 1,2.57258 0,1.07501 0.45,2.84845 1,3.94099 0.55,1.09253 1.45,2.88032 2,3.97286 0.55,1.09254 1,3.11754 1,4.5 0,1.38246 0.45,2.51357 1,2.51357 0.55,0 1,0.88334 1,1.96298 0,1.07964 0.8491,4.11714 1.8869,6.75 1.0378,2.63286 1.8912,5.14382 1.8964,5.57991 0.01,0.43609 0.4984,2.01109 1.0959,3.5 1.1458,2.85558 9.0846,32.93543 9.8198,37.20711 0.2366,1.375 1.2665,6.1 2.2886,10.5 2.8648,12.33262 5.8685,30.18876 8.0744,48 6.8685,55.45854 6.8668,115.92512 0,165.00002 -0.616,4.4 -1.3622,10.25 -1.6581,13 -0.2959,2.75 -0.924,5.9 -1.3957,7 -0.4717,1.1 -1.1084,4.025 -1.4148,6.5 -0.5259,4.2476 -1.2417,7.9375 -3.589,18.5 -0.55,2.475 -1.4245,6.4125 -1.9433,8.75 -0.8528,3.8418 -6.8309,26.4304 -9.1305,34.5 -0.5094,1.7875 -1.3058,4.7231 -1.7698,6.5235 -0.464,1.8004 -1.3848,4.2847 -2.0462,5.5207 -0.6615,1.2359 -0.9303,2.6878 -0.5974,3.2264 0.3329,0.5387 0.1287,0.9794 -0.4538,0.9794 -0.5824,0 -1.059,1.35 -1.059,3 0,1.65 -0.45,3 -1,3 -0.55,0 -1,1.1311 -1,2.5135 0,1.3825 -0.3975,3.295 -0.8833,4.25 -0.4858,0.9551 -1.4383,3.0865 -2.1167,4.7365 -0.6783,1.65 -1.6308,3.7814 -2.1166,4.7364 -0.4859,0.955 -0.8834,2.6425 -0.8834,3.75 0,1.1075 -0.45,2.0136 -1,2.0136 -0.55,0 -1,0.81 -1,1.8 0,0.99 -0.3581,2.2275 -0.7958,2.75 -0.4378,0.5225 -1.3936,2.75 -2.1241,4.95 -0.7305,2.2 -2.6673,6.925 -4.304,10.5 -5.2838,11.5414 -6.5797,14.4405 -7.9342,17.75 -0.7315,1.7875 -1.6702,3.25 -2.086,3.25 -0.4157,0 -0.7559,0.5923 -0.7559,1.3162 0,0.7239 -2.925,7.1238 -6.5,14.2221 -3.575,7.0982 -6.5,13.4809 -6.5,14.1838 0,0.7028 -0.4596,1.2779 -1.0214,1.2779 -0.5618,0 -1.4283,1.0125 -1.9255,2.25 -0.4972,1.2375 -1.4831,3.68 -2.1907,5.4279 -0.7077,1.7478 -1.6413,2.9587 -2.0746,2.6909 -0.4333,-0.2678 -0.7878,0.4397 -0.7878,1.5722 0,1.1324 -0.3375,2.0596 -0.75,2.0603 -0.4125,7e-4 -2.325,2.9251 -4.25,6.4987 -1.925,3.5735 -3.8375,6.4979 -4.25,6.4986 -0.4125,8e-4 -0.75,0.4446 -0.75,0.9864 0,0.8621 -5.1184,9.7641 -7.1958,12.515 -0.4153,0.55 -3.2484,4.7404 -6.2957,9.3121 -7.8302,11.7473 -9.9026,14.6408 -10.7585,15.0212 -0.4125,0.1833 -0.75,0.7652 -0.75,1.2929 0,0.8297 -6.5955,10.2094 -9.5,13.5102 -0.55,0.6251 -3.475,4.3834 -6.5,8.3517 -3.025,3.9684 -6.7447,8.5749 -8.2661,10.2366 -1.5214,1.6617 -3.5309,4.316 -4.4656,5.8983 -0.9347,1.5823 -1.9821,2.877 -2.3276,2.877 -0.3455,0 -3.7222,3.7125 -7.5039,8.25 -9.9859,11.9817 -38.4906,40.9825 -51.9368,52.8405 -2.75,2.4252 -5.225,4.6714 -5.5,4.9914 -1.2248,1.4256 -19.8497,16.739 -23,18.9105 -1.925,1.327 -4.175,3.1406 -5,4.0302 -0.825,0.8896 -6.45,5.2897 -12.5,9.778 -6.05,4.4883 -11.45,8.5229 -12,8.9657 -4.4924,3.6169 -34.4138,23.04 -36.75,23.8558 -0.9625,0.3361 -1.75,1.0087 -1.75,1.4945 0,0.4859 -0.675,0.8834 -1.5,0.8834 -0.825,0 -1.5,0.45 -1.5,1 0,0.55 -0.5869,1 -1.3042,1 -0.7173,0 -3.3048,1.2683 -5.75,2.8185 -2.4452,1.5502 -8.0458,4.7588 -12.4458,7.1302 -4.4,2.3715 -8.4275,4.7031 -8.95,5.1815 -0.5225,0.4784 -1.7225,0.8698 -2.6666,0.8698 -0.9442,0 -1.8667,0.3748 -2.05,0.8329 -0.3006,0.7511 -23.287,12.1671 -24.4987,12.1671 -0.2782,0 -3.2798,1.3123 -6.6702,2.9163 -3.3905,1.604 -7.852,3.629 -9.9145,4.5 -2.0625,0.871 -5.4375,2.3046 -7.5,3.1856 -2.0625,0.8811 -4.65,1.9597 -5.75,2.3968 -1.1,0.4372 -4.3334,1.7413 -7.1854,2.8981 -2.8519,1.1567 -5.8894,2.1032 -6.75,2.1032 -0.8605,0 -1.5646,0.45 -1.5646,1 0,0.55 -0.8734,1 -1.941,1 -1.0675,0 -2.2191,0.45 -2.559,1 -0.3399,0.55 -1.6265,1 -2.859,1 -1.2325,0 -2.6685,0.3717 -3.191,0.8261 -0.5225,0.4544 -2.975,1.3982 -5.45,2.0975 -2.475,0.6992 -5.2814,1.6774 -6.2364,2.1738 -0.955,0.4964 -2.4236,0.9026 -3.2636,0.9026 -0.8399,0 -2.3085,0.4119 -3.2635,0.9155 -0.9551,0.5035 -5.1115,1.8823 -9.2365,3.064 -4.125,1.1817 -8.4,2.5137 -9.5,2.96 -1.7068,0.6925 -19.8623,5.3656 -26,6.6923 -1.1,0.2377 -4.25,0.9132 -7,1.5011 -2.75,0.5878 -6.8,1.4828 -9,1.9888 -2.2,0.506 -5.8,1.1702 -8,1.4758 -2.2,0.3057 -4.9,0.9434 -6,1.4171 -2.264,0.975 -7.1417,1.7634 -16.25,2.6263 -3.4375,0.3256 -6.25,0.9896 -6.25,1.4756 0,0.4859 -3.285,0.8835 -7.3,0.8835 -4.015,0 -7.7275,0.4086 -8.25,0.9081 -0.5225,0.4994 -5,1.1912 -9.95,1.5373 -4.95,0.346 -13.95,1.0671 -20,1.6023 -31.3169,2.7708 -77.479,4.5623 -79.0064,3.0662 z m 348.6298,-913.96465 c 19.7086,-4.94471 35.6297,-18.19613 44.6334,-37.14927 1.6983,-3.575 3.5985,-8.975 4.2227,-12 0.6241,-3.025 1.4869,-7.15107 1.9171,-9.16904 1.4954,-7.01338 -2.9435,-33.50588 -5.9226,-35.34702 -0.5357,-0.33109 -0.974,-1.36611 -0.974,-2.30006 0,-2.17311 -9.8949,-15.18762 -15.6325,-20.56091 -6.5671,-6.15025 -7.1012,-6.55596 -7.7609,-5.89619 -0.3336,0.3336 -0.6066,0.11904 -0.6066,-0.4768 0,-1.66114 -15.1033,-8.92493 -20.0845,-9.65945 -17.5449,-2.58716 -38.4107,-1.48397 -45.9155,2.42758 -1.925,1.00333 -5.9304,3.09721 -8.901,4.65306 -5.4551,2.85713 -22.099,18.47804 -22.099,20.74074 0,0.66603 -0.8022,2.08332 -1.7827,3.14953 -2.4779,2.69451 -5.0954,8.51882 -7.3122,16.27066 -2.1539,7.53165 -2.6404,28.5002 -0.8391,36.1679 0.5814,2.475 1.3055,5.7375 1.6091,7.25 0.3035,1.5125 0.9508,2.75 1.4384,2.75 0.4876,0 0.8865,0.69969 0.8865,1.55487 0,2.27966 6.9535,12.10689 13.1282,18.55382 9.8546,10.2891 21.4287,17.48567 29.9627,18.63032 2.1768,0.29198 4.1985,0.92014 4.4925,1.39593 1.0648,1.72287 27.6872,0.98452 35.54,-0.98567 z m -349.111,380.06315 c -5.7682,-0.1582 -10.9207,-0.7207 -11.45,-1.25 -0.5293,-0.5293 -2.8708,-0.9624 -5.2034,-0.9624 -2.3325,0 -4.5191,-0.45 -4.859,-1 -0.3399,-0.55 -1.6953,-1 -3.0119,-1 -1.3167,0 -3.4276,-0.4032 -4.691,-0.8959 -1.2634,-0.4927 -4.3221,-1.4366 -6.7971,-2.0974 -2.475,-0.6609 -5.2814,-1.6078 -6.2364,-2.1042 -0.955,-0.4964 -2.5525,-0.9025 -3.55,-0.9025 -0.9975,0 -2.2411,-0.3718 -2.7636,-0.8261 -0.5225,-0.4544 -2.975,-1.4498 -5.45,-2.212 -8.5723,-2.6401 -29.2218,-14.7914 -36.3015,-21.3619 -1.54083,-1.43 -3.11583,-2.6023 -3.5,-2.6051 -0.77621,-0.01 -13.90272,-12.7216 -21.776,-21.0949 -6.41436,-6.8217 -14.90958,-17.9743 -17.3798,-22.8164 -1.04307,-2.0446 -2.60439,-4.3049 -3.46959,-5.023 -0.8652,-0.718 -1.57308,-2.1129 -1.57308,-3.0997 0,-0.98686 -0.34434,-1.94426 -0.7652,-2.12759 -0.94392,-0.41118 -7.2348,-14.04253 -7.2348,-15.67666 0,-0.65109 -0.52026,-2.1902 -1.15613,-3.42024 -2.55714,-4.94656 -2.84387,-5.82606 -2.84387,-8.72286 0,-1.65747 -0.40077,-3.01357 -0.8906,-3.01357 -0.92721,0 -1.69972,-3.66418 -2.74076,-13 -0.33731,-3.025 -1.09159,-6.09652 -1.67616,-6.8256 -1.53182,-1.91049 -1.38253,-51.88435 0.15961,-53.42649 0.63135,-0.63135 1.14791,-2.71346 1.14791,-4.62691 0,-1.91346 0.41737,-4.86096 0.9275,-6.55 0.51013,-1.68905 1.94116,-6.446 3.18007,-10.571 1.23892,-4.125 2.62154,-7.9275 3.0725,-8.45 0.45096,-0.5225 0.81993,-1.7331 0.81993,-2.69021 0,-0.95711 1.35,-4.34221 3,-7.52243 1.65,-3.18022 3,-6.27932 3,-6.8869 0,-1.60434 13.05893,-22.38912 18.32498,-29.1663 6.18414,-7.95872 16.98536,-19.1374 24.17502,-25.01984 7.27922,-5.95573 16.17867,-12.26432 17.30117,-12.26432 0.4519,0 1.6941,-0.7875 2.7603,-1.75 1.0662,-0.9625 3.2885,-2.42428 4.9385,-3.24841 1.65,-0.82412 3.225,-1.74757 3.5,-2.0521 0.491,-0.5437 4.0628,-2.23692 11,-5.2145 1.925,-0.82625 5.6326,-2.45464 8.2391,-3.61863 2.6065,-1.164 5.3925,-2.11636 6.191,-2.11636 0.7985,0 1.73,-0.45 2.0699,-1 0.3399,-0.55 1.9149,-1 3.5,-1 1.5851,0 3.1601,-0.45 3.5,-1 0.3399,-0.55 2.0765,-1 3.859,-1 1.7826,0 3.6685,-0.40637 4.191,-0.90305 0.5225,-0.49668 3.2,-1.17618 5.95,-1.51001 2.75,-0.33382 8.825,-1.10952 13.5,-1.72376 15.8171,-2.07818 40.0995,-1.12746 54.5,2.13381 2.75,0.6228 6.6903,1.37579 8.7563,1.67331 2.0659,0.29753 4.005,0.94343 4.309,1.43533 0.304,0.4919 1.4323,0.89437 2.5073,0.89437 1.075,0 2.736,0.3975 3.691,0.88333 1.6176,0.82286 3.9439,1.80669 9.4864,4.01187 11.8985,4.734 24.6024,12.08847 37.3906,21.64589 14.2736,10.66761 25.7224,21.81807 32.8594,32.00315 1.1,1.56978 3.4407,4.76485 5.2016,7.10015 3.5738,4.73968 11.2984,18.03414 11.2984,19.44514 0,0.50076 0.45,0.91047 1,0.91047 0.55,0 1,0.79416 1,1.76481 0,0.97064 0.9,3.44401 2,5.49637 1.1,2.05236 2,4.4082 2,5.23519 0,0.827 0.45,1.50363 1,1.50363 0.55,0 1,0.825 1,1.83333 0,1.00833 0.3305,2.16382 0.7344,2.56774 0.747,0.74696 1.0541,1.9525 5.8837,23.09893 2.5424,11.13208 2.7431,13.62734 2.7746,34.5 0.03,19.66349 -0.2505,23.8237 -2.2219,33 -1.2408,5.775 -2.6612,11.4 -3.1567,12.5 -0.4954,1.1 -1.1904,3.91014 -1.5444,6.24476 -0.354,2.33462 -1.0545,4.49867 -1.5567,4.80901 -0.5021,0.31035 -0.913,1.4377 -0.913,2.50525 0,1.06754 -0.45,1.94098 -1,1.94098 -0.55,0 -1,0.70335 -1,1.56301 0,1.9044 -6.0827,14.80441 -7.2004,15.27031 -0.4397,0.1833 -0.7996,0.7795 -0.7996,1.3249 0,1.7401 -9.037,15.0691 -15.8255,23.3418 -8.6569,10.5494 -21.8735,23.4305 -31.1745,30.3831 -4.125,3.0835 -7.725,5.8948 -8,6.2473 -0.9182,1.1773 -22.4378,12.6866 -27,14.4404 -2.475,0.9515 -4.9275,2.1123 -5.45,2.5796 -0.5225,0.4673 -1.9584,0.8496 -3.191,0.8496 -1.2325,0 -2.5191,0.45 -2.859,1 -0.3399,0.55 -1.6899,1 -3,1 -1.3101,0 -2.6601,0.45 -3,1 -0.3399,0.55 -2.1665,1 -4.059,1 -1.8925,0 -3.441,0.45 -3.441,1 0,0.55 -1.7734,1 -3.941,1 -2.1675,0 -4.2191,0.45 -4.559,1 -0.3399,0.55 -2.871,1 -5.6247,1 -2.7537,0 -5.765,0.4058 -6.6918,0.9018 -1.9924,1.0663 -18.4166,1.7152 -33.1711,1.3106 z"
         id="path2" />
    </g>
  </g>
</svg>
